<svg width="2081" height="3004" xmlns="http://www.w3.org/2000/svg" xmlns:xlink="http://www.w3.org/1999/xlink" xml:space="preserve" overflow="hidden"><g transform="translate(-280 -74)"><rect x="282.5" y="76.5002" width="2076" height="2999" stroke="#FFFFFF" stroke-width="4.58333" stroke-miterlimit="8" fill="#FFFFFF"/><rect x="453.5" y="124.5" width="315" height="105" stroke="#000000" stroke-width="4.58333" stroke-miterlimit="8" fill="#FFFFFF"/><text font-family="Calibri Light,Calibri Light_MSFontService,sans-serif" font-weight="300" font-size="32" transform="matrix(1 0 0 1 511.041 168)">Inicio del modo </text><text font-family="Calibri Light,Calibri Light_MSFontService,sans-serif" font-weight="300" font-size="32" transform="matrix(1 0 0 1 544.27 207)">“Running”</text><path d="M450.5 758.5 610.5 698.5 770.5 758.5 610.5 818.5Z" stroke="#000000" stroke-width="4.58333" stroke-miterlimit="8" fill="#FFFFFF" fill-rule="evenodd"/><text font-family="Calibri Light,Calibri Light_MSFontService,sans-serif" font-weight="300" font-size="32" transform="matrix(1 0 0 1 551.431 749)">¿Pasaron </text><text font-family="Calibri Light,Calibri Light_MSFontService,sans-serif" font-weight="300" font-size="32" transform="matrix(1 0 0 1 567.748 788)">10ms?</text><path d="M450.5 1197 610.5 1133.5 770.5 1197 610.5 1260.5Z" stroke="#000000" stroke-width="4.58333" stroke-miterlimit="8" fill="#FFFFFF" fill-rule="evenodd"/><text font-family="Calibri Light,Calibri Light_MSFontService,sans-serif" font-weight="300" font-size="32" transform="matrix(1 0 0 1 551.431 1188)">¿Pasaron </text><text font-family="Calibri Light,Calibri Light_MSFontService,sans-serif" font-weight="300" font-size="32" transform="matrix(1 0 0 1 559.727 1227)">100ms?</text><path d="M450.5 1730 610.5 1665.5 770.5 1730 610.5 1794.5Z" stroke="#000000" stroke-width="4.58333" stroke-miterlimit="8" fill="#FFFFFF" fill-rule="evenodd"/><text font-family="Calibri Light,Calibri Light_MSFontService,sans-serif" font-weight="300" font-size="32" transform="matrix(1 0 0 1 551.431 1721)">¿Pasaron </text><text font-family="Calibri Light,Calibri Light_MSFontService,sans-serif" font-weight="300" font-size="32" transform="matrix(1 0 0 1 559.727 1760)">250ms?</text><path d="M612.792 229.5 612.792 301.24 608.209 301.241 608.208 229.5ZM624.25 296.657 610.5 324.157 596.75 296.657Z"/><path d="M2.29167-7.82497e-06 2.29195 82.7764-2.29138 82.7765-2.29167 7.82497e-06ZM13.7503 78.1931 0.000360892 105.693-13.7497 78.1932Z" transform="matrix(-1 0 0 1 610.5 818.5)"/><path d="M2.29167-3.99149e-06 2.29199 184.285-2.29135 184.285-2.29167 3.99149e-06ZM13.7503 179.702 0.000360892 207.202-13.7497 179.702Z" transform="matrix(-1 0 0 1 610.5 1260.5)"/><text font-family="Calibri Light,Calibri Light_MSFontService,sans-serif" font-weight="300" font-size="32" transform="matrix(1 0 0 1 641.758 872)">No</text><text font-family="Calibri Light,Calibri Light_MSFontService,sans-serif" font-weight="300" font-size="32" transform="matrix(1 0 0 1 643.155 1307)">No</text><path d="M599.5 581C599.5 575.201 604.425 570.5 610.5 570.5 616.575 570.5 621.5 575.201 621.5 581 621.5 586.799 616.575 591.5 610.5 591.5 604.425 591.5 599.5 586.799 599.5 581Z" stroke="#000000" stroke-width="4.58333" stroke-miterlimit="8" fill-rule="evenodd"/><path d="M612.792 591.5 612.792 675.165 608.209 675.165 608.208 591.5ZM624.25 670.582 610.5 698.082 596.75 670.582Z"/><text font-family="Calibri Light,Calibri Light_MSFontService,sans-serif" font-weight="300" font-size="32" transform="matrix(1 0 0 1 315.194 2506)">No</text><path d="M1178.5 433 1399.5 352.5 1620.5 433 1399.5 513.5Z" stroke="#000000" stroke-width="4.58333" stroke-miterlimit="8" fill="#FFFFFF" fill-rule="evenodd"/><text font-family="Calibri Light,Calibri Light_MSFontService,sans-serif" font-weight="300" font-size="32" transform="matrix(1 0 0 1 1313.41 405)">¿Se supero la </text><text font-family="Calibri Light,Calibri Light_MSFontService,sans-serif" font-weight="300" font-size="32" transform="matrix(1 0 0 1 1315.13 444)">Temperatura </text><text font-family="Calibri Light,Calibri Light_MSFontService,sans-serif" font-weight="300" font-size="32" transform="matrix(1 0 0 1 1340.61 482)">Máxima?</text><path d="M1181.5 680 1399.5 599.5 1617.5 680 1399.5 760.5Z" stroke="#000000" stroke-width="4.58333" stroke-miterlimit="8" fill="#FFFFFF" fill-rule="evenodd"/><text font-family="Calibri Light,Calibri Light_MSFontService,sans-serif" font-weight="300" font-size="32" transform="matrix(1 0 0 1 1313.41 651)">¿Se supero la </text><text font-family="Calibri Light,Calibri Light_MSFontService,sans-serif" font-weight="300" font-size="32" transform="matrix(1 0 0 1 1338.32 690)">Corriente </text><text font-family="Calibri Light,Calibri Light_MSFontService,sans-serif" font-weight="300" font-size="32" transform="matrix(1 0 0 1 1340.61 728)">Maxima</text><text font-family="Calibri Light,Calibri Light_MSFontService,sans-serif" font-weight="300" font-size="32" transform="matrix(1 0 0 1 1442.59 728)">?</text><path d="M1181.5 920 1399.5 839.5 1617.5 920 1399.5 1000.5Z" stroke="#000000" stroke-width="4.58333" stroke-miterlimit="8" fill="#FFFFFF" fill-rule="evenodd"/><text font-family="Calibri Light,Calibri Light_MSFontService,sans-serif" font-weight="300" font-size="32" transform="matrix(1 0 0 1 1312.84 892)">¿Se supero el </text><text font-family="Calibri Light,Calibri Light_MSFontService,sans-serif" font-weight="300" font-size="32" transform="matrix(1 0 0 1 1350.65 931)">Tiempo </text><text font-family="Calibri Light,Calibri Light_MSFontService,sans-serif" font-weight="300" font-size="32" transform="matrix(1 0 0 1 1336.9 969)">Objetivo?</text><path d="M1181.5 1325 1399.5 1247.5 1617.5 1325 1399.5 1402.5Z" stroke="#000000" stroke-width="4.58333" stroke-miterlimit="8" fill="#FFFFFF" fill-rule="evenodd"/><text font-family="Calibri Light,Calibri Light_MSFontService,sans-serif" font-weight="300" font-size="32" transform="matrix(1 0 0 1 1328.58 1297)">¿Pasaron 5 </text><text font-family="Calibri Light,Calibri Light_MSFontService,sans-serif" font-weight="300" font-size="32" transform="matrix(1 0 0 1 1295.08 1336)">segundos desde </text><text font-family="Calibri Light,Calibri Light_MSFontService,sans-serif" font-weight="300" font-size="32" transform="matrix(1 0 0 1 1329.45 1374)">que inicio?</text><path d="M420.5 2454 610.5 2375.5 800.5 2454 610.5 2532.5Z" stroke="#000000" stroke-width="4.58333" stroke-miterlimit="8" fill="#FFFFFF" fill-rule="evenodd"/><text font-family="Calibri Light,Calibri Light_MSFontService,sans-serif" font-weight="300" font-size="32" transform="matrix(1 0 0 1 527.369 2445)">¿Se presiono </text><text font-family="Calibri Light,Calibri Light_MSFontService,sans-serif" font-weight="300" font-size="32" transform="matrix(1 0 0 1 549.14 2484)">el botón?</text><path d="M2.29167-9.26139e-06 2.29193 66.3836-2.2914 66.3836-2.29167 9.26139e-06ZM13.7502 61.8002 0.000360892 89.3003-13.7498 61.8004Z" transform="matrix(-1 0 0 1 610.5 1794.5)"/><text font-family="Calibri Light,Calibri Light_MSFontService,sans-serif" font-weight="300" font-size="32" transform="matrix(1 0 0 1 633.061 1829)">No</text><path d="M0-2.29167 206.176-2.29167 206.176 488.128 203.884 485.836 628.633 485.836 626.342 488.128 626.342 428.544C626.342 427.279 627.368 426.253 628.633 426.253 629.899 426.253 630.925 427.279 630.925 428.544L630.925 490.42 201.593 490.42 201.593 0 203.884 2.29167 0 2.29167C-1.26565 2.29167-2.29167 1.26565-2.29167 0-2.29167-1.26565-1.26565-2.29167 0-2.29167ZM614.883 433.128 628.633 405.628 642.383 433.128Z" transform="matrix(1 0 0 -1 770.5 758.127)"/><rect x="447.5" y="2896.5" width="326" height="93.0002" stroke="#000000" stroke-width="4.58333" stroke-miterlimit="8" fill="#FFFFFF"/><text font-family="Calibri Light,Calibri Light_MSFontService,sans-serif" font-weight="300" font-size="32" transform="matrix(1 0 0 1 498.723 2934)">Detengo el modo </text><text font-family="Calibri Light,Calibri Light_MSFontService,sans-serif" font-weight="300" font-size="32" transform="matrix(1 0 0 1 544.281 2973)">“Running”</text><path d="M2.29165-0.0073632 2.46956 55.3638-2.11374 55.3785-2.29165 0.0073632ZM13.9131 50.7436 0.251542 78.2877-13.5867 50.832Z" transform="matrix(-1 0 0 1 610.752 2532.5)"/><text font-family="Calibri Light,Calibri Light_MSFontService,sans-serif" font-weight="300" font-size="32" transform="matrix(1 0 0 1 643.155 2579)">Si</text><rect x="1789.5" y="398.5" width="249" height="72.0002" stroke="#000000" stroke-width="4.58333" stroke-miterlimit="8" fill="#FFFFFF"/><text font-family="Calibri Light,Calibri Light_MSFontService,sans-serif" font-weight="300" font-size="32" transform="matrix(1 0 0 1 1838.49 425)">Mensaje de </text><text font-family="Calibri Light,Calibri Light_MSFontService,sans-serif" font-weight="300" font-size="32" transform="matrix(1 0 0 1 1875.16 464)">Alerta</text><rect x="1789.5" y="641.5" width="249" height="73.0002" stroke="#000000" stroke-width="4.58333" stroke-miterlimit="8" fill="#FFFFFF"/><text font-family="Calibri Light,Calibri Light_MSFontService,sans-serif" font-weight="300" font-size="32" transform="matrix(1 0 0 1 1838.49 669)">Mensaje de </text><text font-family="Calibri Light,Calibri Light_MSFontService,sans-serif" font-weight="300" font-size="32" transform="matrix(1 0 0 1 1875.16 708)">Alerta</text><rect x="1789.5" y="883.5" width="249" height="73.0002" stroke="#000000" stroke-width="4.58333" stroke-miterlimit="8" fill="#FFFFFF"/><text font-family="Calibri Light,Calibri Light_MSFontService,sans-serif" font-weight="300" font-size="32" transform="matrix(1 0 0 1 1838.5 911)">Mensaje de </text><text font-family="Calibri Light,Calibri Light_MSFontService,sans-serif" font-weight="300" font-size="32" transform="matrix(1 0 0 1 1835.91 950)">Información</text><path d="M1529.5 1599.5 1813.5 1481.5 2097.5 1599.5 1813.5 1717.5Z" stroke="#000000" stroke-width="4.58333" stroke-miterlimit="8" fill="#FFFFFF" fill-rule="evenodd"/><text font-family="Calibri Light,Calibri Light_MSFontService,sans-serif" font-weight="300" font-size="32" transform="matrix(1 0 0 1 1704.45 1552)">¿El error entre </text><text font-family="Calibri Light,Calibri Light_MSFontService,sans-serif" font-weight="300" font-size="32" transform="matrix(1 0 0 1 1899.24 1552)">la </text><text font-family="Calibri Light,Calibri Light_MSFontService,sans-serif" font-weight="300" font-size="32" transform="matrix(1 0 0 1 1672.09 1591)">corriente objetivo</text><text font-family="Calibri Light,Calibri Light_MSFontService,sans-serif" font-weight="300" font-size="32" transform="matrix(1 0 0 1 1909.85 1591)">y la </text><text font-family="Calibri Light,Calibri Light_MSFontService,sans-serif" font-weight="300" font-size="32" transform="matrix(1 0 0 1 1700.17 1629)">actual es mayor a </text><text font-family="Calibri Light,Calibri Light_MSFontService,sans-serif" font-weight="300" font-size="32" transform="matrix(1 0 0 1 1759.45 1668)">200mA?</text><path d="M0 2.29167-82.4995 2.29167-80.2078 0-80.2078 1873.28-82.4995 1870.99 156.478 1870.99 156.478 1875.57-84.7912 1875.57-84.7912-2.29167 0-2.29167ZM151.895 1859.53 179.395 1873.28 151.895 1887.03Z" transform="matrix(1 -1.22465e-16 -1.22465e-16 -1 420.5 2453.78)"/><path d="M1617.5 1323.21 1815.84 1323.21 1815.84 1458.43 1811.25 1458.43 1811.25 1325.5 1813.55 1327.79 1617.5 1327.79ZM1827.3 1453.85 1813.55 1481.35 1799.8 1453.85Z"/><path d="M1620.52 431.208 1766.9 432.254 1766.86 436.838 1620.48 435.792ZM1762.4 420.764 1789.8 434.71 1762.2 448.263Z"/><path d="M0.0235176-2.29155 149.628-0.756184 149.581 3.82691-0.0235176 2.29155ZM145.163-12.261 172.52 1.77054 144.881 15.2376Z" transform="matrix(1 0 0 -1 1617.5 679.271)"/><rect x="1688.5" y="1822.5" width="249" height="100" stroke="#000000" stroke-width="4.58333" stroke-miterlimit="8" fill="#FFFFFF"/><text font-family="Calibri Light,Calibri Light_MSFontService,sans-serif" font-weight="300" font-size="32" transform="matrix(1 0 0 1 1737.41 1864)">Mensaje de </text><text font-family="Calibri Light,Calibri Light_MSFontService,sans-serif" font-weight="300" font-size="32" transform="matrix(1 0 0 1 1774.07 1903)">Alerta</text><path d="M1617.5 918.208 1767.1 918.209 1767.1 922.792 1617.5 922.792ZM1762.52 906.75 1790.02 920.5 1762.52 934.25Z"/><path d="M2038.5 432.208 2246.19 432.208 2246.19 765.409 2241.6 765.409 2241.6 434.5 2243.89 436.792 2038.5 436.792ZM2257.64 760.826 2243.89 788.326 2230.14 760.826Z"/><path d="M1401.79 513.5 1401.79 575.995 1397.21 575.995 1397.21 513.5ZM1413.25 571.411 1399.5 598.911 1385.75 571.411Z"/><path d="M1401.79 760.5 1401.79 816.511 1397.21 816.511 1397.21 760.5ZM1413.25 811.927 1399.5 839.427 1385.75 811.927Z"/><path d="M0 2.29167-82.5003 2.29167-80.2087 0-80.2087 497.901-82.5003 495.61 68.2992 495.61 68.2992 755.249 63.7159 755.249 63.7159 497.901 66.0076 500.193-84.792 500.193-84.792-2.29167 0-2.29167ZM79.7576 750.665 66.0076 778.165 52.2576 750.665Z" transform="matrix(-6.12323e-17 -1 -1 6.12323e-17 1399.67 1000.51)"/><path d="M1815.79 1717.5 1815.79 1799.43 1811.21 1799.43 1811.21 1717.5ZM1827.25 1794.84 1813.5 1822.34 1799.75 1794.84Z"/><text font-family="Calibri Light,Calibri Light_MSFontService,sans-serif" font-weight="300" font-size="32" transform="matrix(1 0 0 1 1417.02 1455)">No</text><path d="M599.5 935C599.5 929.201 604.425 924.5 610.5 924.5 616.575 924.5 621.5 929.201 621.5 935 621.5 940.799 616.575 945.5 610.5 945.5 604.425 945.5 599.5 940.799 599.5 935Z" stroke="#000000" stroke-width="4.58333" stroke-miterlimit="8" fill-rule="evenodd"/><path d="M612.792 945.5 612.792 1110.79 608.209 1110.79 608.208 945.5ZM624.25 1106.21 610.5 1133.71 596.75 1106.21Z"/><text font-family="Calibri Light,Calibri Light_MSFontService,sans-serif" font-weight="300" font-size="32" transform="matrix(1 0 0 1 1669.35 418)">Si</text><text font-family="Calibri Light,Calibri Light_MSFontService,sans-serif" font-weight="300" font-size="32" transform="matrix(1 0 0 1 1412.73 547)">No</text><text font-family="Calibri Light,Calibri Light_MSFontService,sans-serif" font-weight="300" font-size="32" transform="matrix(1 0 0 1 1412.73 798)">No</text><text font-family="Calibri Light,Calibri Light_MSFontService,sans-serif" font-weight="300" font-size="32" transform="matrix(1 0 0 1 1412.73 1039)">No</text><path d="M1802.5 2943C1802.5 2937.2 1807.2 2932.5 1813 2932.5 1818.8 2932.5 1823.5 2937.2 1823.5 2943 1823.5 2948.8 1818.8 2953.5 1813 2953.5 1807.2 2953.5 1802.5 2948.8 1802.5 2943Z" stroke="#000000" stroke-width="4.58333" stroke-miterlimit="8" fill-rule="evenodd"/><path d="M2.29167-8.19e-07 2.29202 986.906-2.29131 986.906-2.29167 8.19e-07ZM13.7504 982.323 0.000360892 1009.82-13.7496 982.323Z" transform="matrix(-1 0 0 1 1813.5 1922.5)"/><path d="M8.03657e-07-2.29167 1006.19-2.29131 1006.19 2.29202-8.03657e-07 2.29167ZM1001.6-13.7496 1029.1 0.000360892 1001.6 13.7504Z" transform="matrix(-1 0 0 1 1802.6 2943.5)"/><path d="M2246.14 1104.5 2246.14 2945.8 1846.42 2945.8 1846.42 2941.22 2243.85 2941.22 2241.55 2943.51 2241.55 1104.5ZM1851 2957.26 1823.5 2943.51 1851 2929.76Z"/><path d="M2233.5 1093.5C2233.5 1087.42 2238.42 1082.5 2244.5 1082.5 2250.57 1082.5 2255.5 1087.42 2255.5 1093.5 2255.5 1099.58 2250.57 1104.5 2244.5 1104.5 2238.42 1104.5 2233.5 1099.58 2233.5 1093.5Z" stroke="#000000" stroke-width="4.58333" stroke-miterlimit="8" fill-rule="evenodd"/><path d="M1265.5 1478.5C1265.5 1472.42 1270.42 1467.5 1276.5 1467.5 1282.57 1467.5 1287.5 1472.42 1287.5 1478.5 1287.5 1484.58 1282.57 1489.5 1276.5 1489.5 1270.42 1489.5 1265.5 1484.58 1265.5 1478.5Z" stroke="#000000" stroke-width="4.58333" stroke-miterlimit="8" fill-rule="evenodd"/><path d="M1402.15 1402.5 1402.15 1480.44 1310.42 1480.44 1310.42 1475.85 1399.86 1475.85 1397.57 1478.15 1397.57 1402.5ZM1315 1491.9 1287.5 1478.15 1315 1464.4Z"/><path d="M1529.16 1601.8 1274.21 1601.8 1274.21 1512.42 1278.79 1512.42 1278.79 1599.51 1276.5 1597.22 1529.16 1597.22ZM1262.75 1517 1276.5 1489.5 1290.25 1517Z"/><text font-family="Calibri Light,Calibri Light_MSFontService,sans-serif" font-weight="300" font-size="32" transform="matrix(1 0 0 1 1452.9 1636)">No</text><text font-family="Calibri Light,Calibri Light_MSFontService,sans-serif" font-weight="300" font-size="32" transform="matrix(1 0 0 1 1822.22 1779)">Si</text><path d="M0 2.29167-82.499 2.29167-80.2073 0-80.2073 86.7304-82.499 84.4387 334.01 84.4387 334.01 175.752 272.136 175.752 272.136 171.169 331.718 171.169 329.426 173.461 329.426 86.7304 331.718 89.022-84.7907 89.022-84.7907-2.29167 0-2.29167ZM276.719 187.211 249.219 173.461 276.719 159.711Z" transform="matrix(-1 0 0 1 2038.72 920.5)"/><path d="M2233.5 799C2233.5 793.201 2238.42 788.5 2244.5 788.5 2250.57 788.5 2255.5 793.201 2255.5 799 2255.5 804.799 2250.57 809.5 2244.5 809.5 2238.42 809.5 2233.5 804.799 2233.5 799Z" stroke="#000000" stroke-width="4.58333" stroke-miterlimit="8" fill-rule="evenodd"/><path d="M2038.5 675.208 2138.12 675.208 2138.12 798.535 2135.83 796.243 2210.23 796.243 2210.23 800.827 2133.53 800.827 2133.53 677.5 2135.83 679.792 2038.5 679.792ZM2205.65 784.785 2233.15 798.535 2205.65 812.285Z"/><path d="M2246.79 809.5 2246.79 1059.61 2242.21 1059.61 2242.21 809.5ZM2258.25 1055.03 2244.5 1082.53 2230.75 1055.03Z"/><text font-family="Calibri Light,Calibri Light_MSFontService,sans-serif" font-weight="300" font-size="32" transform="matrix(1 0 0 1 1669.35 657)">Si</text><text font-family="Calibri Light,Calibri Light_MSFontService,sans-serif" font-weight="300" font-size="32" transform="matrix(1 0 0 1 1669.35 901)">Si</text><text font-family="Calibri Light,Calibri Light_MSFontService,sans-serif" font-weight="300" font-size="32" transform="matrix(1 0 0 1 1669.35 1306)">Si</text><path d="M770.5 1195.21 1401.43 1195.21 1401.43 1224.93 1396.84 1224.93 1396.84 1197.5 1399.13 1199.79 770.5 1199.79ZM1412.88 1220.34 1399.13 1247.84 1385.38 1220.34Z"/><text font-family="Calibri Light,Calibri Light_MSFontService,sans-serif" font-weight="300" font-size="32" transform="matrix(1 0 0 1 826.955 1188)">Si</text><path d="M599.5 1478.5C599.5 1472.42 604.425 1467.5 610.5 1467.5 616.575 1467.5 621.5 1472.42 621.5 1478.5 621.5 1484.58 616.575 1489.5 610.5 1489.5 604.425 1489.5 599.5 1484.58 599.5 1478.5Z" stroke="#000000" stroke-width="4.58333" stroke-miterlimit="8" fill-rule="evenodd"/><path d="M1.2836e-06-2.29167 621.401-2.29132 621.401 2.29201-1.2836e-06 2.29167ZM616.818-13.7497 644.318 0.000360892 616.818 13.7503Z" transform="matrix(-1 0 0 1 1265.82 1478.5)"/><path d="M612.792 1489.5 612.792 1642.35 608.209 1642.35 608.208 1489.5ZM624.25 1637.77 610.5 1665.27 596.75 1637.77Z"/><rect x="895.5" y="1669.5" width="401" height="120" stroke="#000000" stroke-width="4.58333" stroke-miterlimit="8" fill="#FFFFFF"/><text font-family="Calibri Light,Calibri Light_MSFontService,sans-serif" font-weight="300" font-size="32" transform="matrix(1 0 0 1 941.483 1721)">Actualizo la información </text><text font-family="Calibri Light,Calibri Light_MSFontService,sans-serif" font-weight="300" font-size="32" transform="matrix(1 0 0 1 1024.85 1760)">en Pantalla</text><path d="M770.5 1727.21 872.087 1727.21 872.087 1731.79 770.5 1731.79ZM867.504 1715.75 895.004 1729.5 867.504 1743.25Z"/><path d="M599.5 1894C599.5 1888.2 604.425 1883.5 610.5 1883.5 616.575 1883.5 621.5 1888.2 621.5 1894 621.5 1899.8 616.575 1904.5 610.5 1904.5 604.425 1904.5 599.5 1899.8 599.5 1894Z" stroke="#000000" stroke-width="4.58333" stroke-miterlimit="8" fill-rule="evenodd"/><path d="M612.792 1904.5 612.792 2006.14 608.209 2006.14 608.208 1904.5ZM624.25 2001.56 610.5 2029.06 596.75 2001.56Z"/><path d="M1098.49 1789.5 1098.49 1896.35 644.417 1896.35 644.417 1891.77 1096.2 1891.77 1093.91 1894.06 1093.91 1789.5ZM649 1907.81 621.5 1894.06 649 1880.31Z"/><text font-family="Calibri Light,Calibri Light_MSFontService,sans-serif" font-weight="300" font-size="32" transform="matrix(1 0 0 1 797.628 1713)">Si</text><text font-family="Calibri Light,Calibri Light_MSFontService,sans-serif" font-weight="300" font-size="32" transform="matrix(1 0 0 1 819.274 748)">Si</text><rect x="453.5" y="323.5" width="315" height="105" stroke="#000000" stroke-width="4.58333" stroke-miterlimit="8" fill="#FFFFFF"/><text font-family="Calibri Light,Calibri Light_MSFontService,sans-serif" font-weight="300" font-size="32" transform="matrix(1 0 0 1 486.978 367)">Cargo el valor en el </text><text font-family="Calibri Light,Calibri Light_MSFontService,sans-serif" font-weight="300" font-size="32" transform="matrix(1 0 0 1 582.656 406)">DAC</text><path d="M2.29167-5.84139e-06 2.29197 118.667-2.29136 118.667-2.29167 5.84139e-06ZM13.7503 114.083 0.000360892 141.583-13.7497 114.084Z" transform="matrix(-1 0 0 1 610.5 428.5)"/><path d="M450.5 2094 610.5 2029.5 770.5 2094 610.5 2158.5Z" stroke="#000000" stroke-width="4.58333" stroke-miterlimit="8" fill="#FFFFFF" fill-rule="evenodd"/><text font-family="Calibri Light,Calibri Light_MSFontService,sans-serif" font-weight="300" font-size="32" transform="matrix(1 0 0 1 551.431 2085)">¿Pasaron </text><text font-family="Calibri Light,Calibri Light_MSFontService,sans-serif" font-weight="300" font-size="32" transform="matrix(1 0 0 1 588.373 2124)">5s?</text><rect x="884.5" y="2033.5" width="565" height="120" stroke="#000000" stroke-width="4.58333" stroke-miterlimit="8" fill="#FFFFFF"/><text font-family="Calibri Light,Calibri Light_MSFontService,sans-serif" font-weight="300" font-size="32" transform="matrix(1 0 0 1 920.459 2066)">Cambio lo que se muestra en pantalla. </text><text font-family="Calibri Light,Calibri Light_MSFontService,sans-serif" font-weight="300" font-size="32" transform="matrix(1 0 0 1 947.386 2105)">Una muestra Temperatura, la otra </text><text font-family="Calibri Light,Calibri Light_MSFontService,sans-serif" font-weight="300" font-size="32" transform="matrix(1 0 0 1 1079.73 2143)">muestra mAh</text><path d="M770.5 2091.21 861.341 2091.21 861.341 2095.79 770.5 2095.79ZM856.758 2079.75 884.258 2093.5 856.758 2107.25Z"/><text font-family="Calibri Light,Calibri Light_MSFontService,sans-serif" font-weight="300" font-size="32" transform="matrix(1 0 0 1 803.429 2077)">Si</text><path d="M599.5 2254.5C599.5 2248.43 604.425 2243.5 610.5 2243.5 616.575 2243.5 621.5 2248.43 621.5 2254.5 621.5 2260.58 616.575 2265.5 610.5 2265.5 604.425 2265.5 599.5 2260.58 599.5 2254.5Z" stroke="#000000" stroke-width="4.58333" stroke-miterlimit="8" fill-rule="evenodd"/><path d="M612.792 2265.5 612.792 2353.3 608.209 2353.3 608.208 2265.5ZM624.25 2348.71 610.5 2376.21 596.75 2348.71Z"/><path d="M1169.71 2153.5 1169.71 2256.13 644.417 2256.13 644.417 2251.55 1167.42 2251.55 1165.12 2253.84 1165.12 2153.5ZM649 2267.59 621.5 2253.84 649 2240.09Z"/><path d="M2.29167-9.72075e-06 2.29193 62.1637-2.2914 62.1637-2.29167 9.72075e-06ZM13.7502 57.5803 0.000360892 85.0804-13.7498 57.5804Z" transform="matrix(-1 0 0 1 610.5 2158.5)"/><text font-family="Calibri Light,Calibri Light_MSFontService,sans-serif" font-weight="300" font-size="32" transform="matrix(1 0 0 1 632.413 2195)">No</text><rect x="1789.5" y="1057.5" width="249" height="72.0002" stroke="#000000" stroke-width="4.58333" stroke-miterlimit="8" fill="#FFFFFF"/><text font-family="Calibri Light,Calibri Light_MSFontService,sans-serif" font-weight="300" font-size="32" transform="matrix(1 0 0 1 1843.65 1084)">Muestro el </text><text font-family="Calibri Light,Calibri Light_MSFontService,sans-serif" font-weight="300" font-size="32" transform="matrix(1 0 0 1 1853.66 1123)">Resumen</text><path d="M0-2.29167 99.6175-2.29167 99.6175 0.000360892 97.3258-2.29131 171.735-2.29131 171.735 2.29203 95.0342 2.29203 95.0342 0 97.3258 2.29167 0 2.29167ZM167.152-13.7496 194.652 0.000360892 167.152 13.7504Z" transform="matrix(1 0 0 -1 2038.5 1093.5)"/><rect x="428.5" y="2749.5" width="364" height="91.9998" stroke="#000000" stroke-width="4.58333" stroke-miterlimit="8" fill="#FFFFFF"/><text font-family="Calibri Light,Calibri Light_MSFontService,sans-serif" font-weight="300" font-size="32" transform="matrix(1 0 0 1 475.841 2806)">Muestro el Resumen</text><path d="M612.792 2841.49 612.939 2873.74 608.356 2873.76 608.208 2841.51ZM624.376 2869.11 610.752 2896.67 596.876 2869.23Z"/><rect x="428.5" y="2610.5" width="364" height="93.0002" stroke="#000000" stroke-width="4.58333" stroke-miterlimit="8" fill="#FFFFFF"/><text font-family="Calibri Light,Calibri Light_MSFontService,sans-serif" font-weight="300" font-size="32" transform="matrix(1 0 0 1 475.555 2648)">Muestro un Mensaje </text><text font-family="Calibri Light,Calibri Light_MSFontService,sans-serif" font-weight="300" font-size="32" transform="matrix(1 0 0 1 511.923 2687)">de Información</text><path d="M612.792 2703.5 612.792 2726.39 608.208 2726.39 608.208 2703.5ZM624.25 2721.8 610.5 2749.3 596.75 2721.8Z"/></g></svg>